<svg xmlns="http://www.w3.org/2000/svg" viewBox="0 0 32 32"><defs><style>.cls-1{fill:#fff;}</style></defs><title>B_www</title><g id="Layer_20" data-name="Layer 20"><path class="cls-1" d="M27.2,1.44H4.8A3.35,3.35,0,0,0,1.44,4.8V27.2A3.35,3.35,0,0,0,4.8,30.56H27.2a3.35,3.35,0,0,0,3.36-3.36V4.8A3.35,3.35,0,0,0,27.2,1.44ZM16,10.4A5.6,5.6,0,1,1,10.4,16,5.6,5.6,0,0,1,16,10.4ZM26.92,25.8a1.12,1.12,0,0,1-1.12,1.12H6.2A1.12,1.12,0,0,1,5.08,25.8V13.57h2.3a9.49,9.49,0,0,0-.24,1.18A8.66,8.66,0,0,0,7,16,9,9,0,0,0,25,16a8.66,8.66,0,0,0-.1-1.25,9.49,9.49,0,0,0-.24-1.18h2.3Zm0-17A1.12,1.12,0,0,1,25.8,10H23.16A1.12,1.12,0,0,1,22,8.84V6.2a1.12,1.12,0,0,1,1.12-1.12H25.8A1.12,1.12,0,0,1,26.92,6.2Z"/></g></svg>