<svg xmlns="http://www.w3.org/2000/svg" viewBox="0 0 378 55"><defs><style>.cls-1{fill:#fff;}</style></defs><title>B_www</title><g id="Layer_20" data-name="Layer 20"><path class="cls-1" d="M68.32,7.69a.39.39,0,0,1,.07-.28.4.4,0,0,1,.27-.07h6.51c.19,0,.29,0,.32.07a.85.85,0,0,1,0,.28V47.17a.81.81,0,0,1,0,.28s-.13.07-.32.07H68.66c-.14,0-.23,0-.27-.07s-.07-.14-.07-.28Z"/><path class="cls-1" d="M159.89,7.41a.39.39,0,0,0-.28-.07H142.92a16,16,0,0,0-6,1.08,13.55,13.55,0,0,0-4.62,3c-.15.15-.29.32-.43.48-.15-.16-.28-.33-.44-.48a13.36,13.36,0,0,0-4.62-3,15.94,15.94,0,0,0-6-1.08H104.19a.39.39,0,0,0-.28.07.39.39,0,0,0-.07.28v6.53c0,.18,0,.29.07.31a.61.61,0,0,0,.28,0h19.24A4.78,4.78,0,0,1,127,15.89a4.39,4.39,0,0,1,1.23,2.43,6.57,6.57,0,0,1,.09,1.11v1.75c0,.27,0,.54,0,.82V47.29a.85.85,0,0,0,0,.28s.13.07.32.07h6.56c.19,0,.29,0,.31-.07a.61.61,0,0,0,0-.28V22c0-.28,0-.55,0-.82V19.43a6.54,6.54,0,0,1,.1-1.11,4.44,4.44,0,0,1,1.22-2.43,4.79,4.79,0,0,1,3.55-1.32h19.26a.61.61,0,0,0,.28,0c.05,0,.07-.13.07-.31V7.69A.39.39,0,0,0,159.89,7.41Z"/><path class="cls-1" d="M164.05,21.75a16.31,16.31,0,0,1,1.07-6,13.6,13.6,0,0,1,3-4.64,13.27,13.27,0,0,1,4.64-3,16.5,16.5,0,0,1,6-1H207.9a16.54,16.54,0,0,1,6,1,13.36,13.36,0,0,1,4.64,3,13.73,13.73,0,0,1,3,4.64,16.11,16.11,0,0,1,1.08,6V33.32a15.92,15.92,0,0,1-1.08,6,13.63,13.63,0,0,1-3,4.64,13.36,13.36,0,0,1-4.64,3,16.54,16.54,0,0,1-6,1H178.74a16.5,16.5,0,0,1-6-1,13.27,13.27,0,0,1-4.64-3,13.51,13.51,0,0,1-3-4.64,16.12,16.12,0,0,1-1.07-6Zm7.2,14.2a4.64,4.64,0,0,0,1.32,3.5,4.86,4.86,0,0,0,3.53,1.28h34.43A4.42,4.42,0,0,0,215.31,36V19.05a4.75,4.75,0,0,0-1.28-3.5,4.75,4.75,0,0,0-3.5-1.28H176.1a4.86,4.86,0,0,0-3.53,1.28,4.66,4.66,0,0,0-1.32,3.5Z"/><path class="cls-1" d="M288,7.34a16.24,16.24,0,0,1,5.92,1,12.62,12.62,0,0,1,7.45,7.45,16.24,16.24,0,0,1,1,5.92,17.21,17.21,0,0,1-1,6.13,13.09,13.09,0,0,1-2.91,4.64,12.88,12.88,0,0,1-4.54,2.95,16.24,16.24,0,0,1-5.92,1H276.44a16.48,16.48,0,0,1-5.95-1,13.18,13.18,0,0,1-4.64-3,13,13,0,0,1-3-4.64,16.33,16.33,0,0,1-1-6V13.78h-3.74V47.17a.74.74,0,0,1,0,.28s-.13.07-.31.07h-6.51a.39.39,0,0,1-.28-.07.43.43,0,0,1-.07-.28V7.69a.45.45,0,0,1,.07-.28.45.45,0,0,1,.28-.07Zm7.13,12a4.59,4.59,0,0,0-1.28-3.43,4.7,4.7,0,0,0-3.5-1.29H269v9.91a4.42,4.42,0,0,0,4.78,4.78H290.3a4.42,4.42,0,0,0,4.78-4.78Z"/><path class="cls-1" d="M307.4,7.69a.39.39,0,0,1,.07-.28.4.4,0,0,1,.27-.07h6.52c.18,0,.28,0,.31.07a.85.85,0,0,1,0,.28V47.17a.81.81,0,0,1,0,.28s-.13.07-.31.07h-6.52c-.14,0-.23,0-.27-.07s-.07-.14-.07-.28Z"/><path class="cls-1" d="M334.19,47.52a15.89,15.89,0,0,1-5.93-1.07,13.24,13.24,0,0,1-7.55-7.55A15.89,15.89,0,0,1,319.64,33a16.48,16.48,0,0,1,1.07-6.09,13.86,13.86,0,0,1,3-4.64,12.8,12.8,0,0,1,4.57-3,16.09,16.09,0,0,1,5.93-1h11.35a16.52,16.52,0,0,1,6,1,12.66,12.66,0,0,1,4.6,3,13.73,13.73,0,0,1,3,4.6,15.86,15.86,0,0,1,1.08,6v8.25h3.67V19.4a4.53,4.53,0,0,0-4.85-4.85H320.4c-.18,0-.29,0-.31,0a.79.79,0,0,1,0-.31V7.69a.85.85,0,0,1,0-.28s.13-.07.31-.07h36.15a15.92,15.92,0,0,1,6,1.08,13.37,13.37,0,0,1,4.61,3A13,13,0,0,1,370.06,16a16.54,16.54,0,0,1,1,6V47.17a.86.86,0,0,1,0,.32.86.86,0,0,1-.32,0Zm-7.35-12.05a4.54,4.54,0,0,0,4.85,4.85H353V30.2a4.42,4.42,0,0,0-4.78-4.78H331.69a4.86,4.86,0,0,0-3.53,1.28,4.66,4.66,0,0,0-1.32,3.5Z"/><path class="cls-1" d="M54.27,29.05H14.1V25.31H54.27a8.76,8.76,0,0,0,6.55-2.5,8.86,8.86,0,0,0,2.46-6.51,9.12,9.12,0,0,0-2.46-6.75,8.85,8.85,0,0,0-6.55-2.46H16.6A9.58,9.58,0,0,0,9.53,9.72,9.58,9.58,0,0,0,6.9,16.79V37.57a9.58,9.58,0,0,0,2.63,7.07,9.58,9.58,0,0,0,7.07,2.63H54.27a8.85,8.85,0,0,0,6.55-2.46,9.12,9.12,0,0,0,2.46-6.75,8.9,8.9,0,0,0-2.46-6.52A8.79,8.79,0,0,0,54.27,29.05ZM14.1,14.29H56V18.1H14.1ZM56,40.06H14.1V36.25H56Z"/><path class="cls-1" d="M81.51,16.07A8.86,8.86,0,0,1,84,9.52a9.16,9.16,0,0,1,6.75-2.46,8.9,8.9,0,0,1,6.51,2.46,8.77,8.77,0,0,1,2.5,6.55V38.93a8.85,8.85,0,0,1-2.46,6.55,10.18,10.18,0,0,1-13.27,0,8.79,8.79,0,0,1-2.49-6.55Zm11,24.66V14.27H88.71V40.73Z"/><path class="cls-1" d="M227.62,16.07a8.86,8.86,0,0,1,2.46-6.55,9.17,9.17,0,0,1,6.76-2.46,8.92,8.92,0,0,1,6.51,2.46,8.8,8.8,0,0,1,2.49,6.55V38.93a8.85,8.85,0,0,1-2.46,6.55,10.16,10.16,0,0,1-13.26,0,8.79,8.79,0,0,1-2.5-6.55Zm11,24.66V14.27h-3.81V40.73Z"/></g></svg>