<svg xmlns="http://www.w3.org/2000/svg" viewBox="0 0 40 30"><title>B_www</title><g id="Layer_20" data-name="Layer 20"><path d="M32.3,16.2H6.55V13.8H32.3a5.63,5.63,0,0,0,4.2-1.6A5.68,5.68,0,0,0,38.07,8,5.84,5.84,0,0,0,36.5,3.7a5.7,5.7,0,0,0-4.2-1.58H8.14A6.12,6.12,0,0,0,3.61,3.81,6.12,6.12,0,0,0,1.93,8.34V21.66a6.12,6.12,0,0,0,1.68,4.53,6.12,6.12,0,0,0,4.53,1.69H32.3a5.7,5.7,0,0,0,4.2-1.58A5.84,5.84,0,0,0,38.07,22,5.45,5.45,0,0,0,32.3,16.2ZM6.55,6.74H33.41V9.18H6.55ZM33.41,23.26H6.55V20.82H33.41Z"/></g></svg>