<svg xmlns="http://www.w3.org/2000/svg" viewBox="0 0 32 32"><defs><style>.cls-1{fill:#fff;}</style></defs><title>B_www</title><g id="Layer_20" data-name="Layer 20"><path class="cls-1" d="M13.57,12.76,20,16l-6.47,3.25Zm17-5.25v17a6.07,6.07,0,0,1-6.07,6.07h-17a6.07,6.07,0,0,1-6.07-6.07v-17A6.07,6.07,0,0,1,7.51,1.44h17A6.07,6.07,0,0,1,30.56,7.51ZM25.71,16c0-5-.39-6.92-3.55-7.13-2.92-.2-9.41-.2-12.32,0C6.69,9.08,6.32,11,6.29,16s.39,6.92,3.55,7.13c2.91.2,9.4.2,12.32,0C25.31,22.92,25.68,21,25.71,16Z"/></g></svg>